<svg xmlns="http://www.w3.org/2000/svg" xmlns:xlink="http://www.w3.org/1999/xlink" id="visual" viewBox="0 0 900 600" width="900" height="600" version="1.1"><g fill="#f9f7ea"><circle r="43" cx="109" cy="220"/><circle r="14" cx="195" cy="158"/><circle r="29" cx="132" cy="375"/><circle r="32" cx="74" cy="454"/><circle r="21" cx="351" cy="406"/><circle r="29" cx="501" cy="129"/><circle r="38" cx="695" cy="258"/><circle r="40" cx="272" cy="232"/><circle r="30" cx="199" cy="57"/><circle r="31" cx="357" cy="290"/><circle r="28" cx="805" cy="329"/><circle r="23" cx="220" cy="308"/><circle r="36" cx="848" cy="255"/><circle r="40" cx="798" cy="492"/><circle r="33" cx="511" cy="232"/><circle r="13" cx="825" cy="142"/><circle r="22" cx="587" cy="433"/><circle r="37" cx="297" cy="62"/><circle r="30" cx="198" cy="504"/><circle r="22" cx="725" cy="127"/><circle r="36" cx="548" cy="544"/><circle r="21" cx="607" cy="133"/><circle r="34" cx="595" cy="326"/><circle r="24" cx="448" cy="400"/><circle r="18" cx="690" cy="394"/><circle r="14" cx="355" cy="178"/><circle r="23" cx="109" cy="49"/><circle r="13" cx="434" cy="61"/><circle r="31" cx="245" cy="420"/><circle r="20" cx="313" cy="528"/><circle r="18" cx="458" cy="495"/><circle r="21" cx="642" cy="527"/><circle r="39" cx="564" cy="47"/><circle r="37" cx="663" cy="59"/><circle r="41" cx="117" cy="536"/><circle r="16" cx="65" cy="308"/><circle r="19" cx="727" cy="554"/><circle r="31" cx="46" cy="114"/><circle r="32" cx="790" cy="58"/><circle r="18" cx="505" cy="324"/><circle r="16" cx="838" cy="414"/><circle r="15" cx="612" cy="234"/></g></svg>